<svg xmlns="http://www.w3.org/2000/svg" viewBox="0 0 128 128">
  <title>Python Logo</title>
  <rect width="128" height="128" rx="18" fill="#f7f7f7"/>
  <path fill="#3776ab" d="M65 18c-20 0-19 9-19 9v9h19v3H38c-10 0-18 8-18 19v12c0 11 9 19 19 19h11V72c0-8 7-15 15-15h25c8 0 15-7 15-15V27s3-9-19-9zm-11 12a4 4 0 1 1 0 8 4 4 0 0 1 0-8z"/>
  <path fill="#ffd343" d="M64 110c20 0 19-9 19-9V92H64v-3h27c10 0 18-8 18-19V58c0-11-9-19-19-19H79v17c0 8-7 15-15 15H39c-8 0-15 7-15 15v15s-3 9 19 9zm11-12a4 4 0 1 1 0-8 4 4 0 0 1 0 8z"/>
</svg>
