<svg xmlns="http://www.w3.org/2000/svg" viewBox="0 0 64 64" width="64" height="64">
  <rect width="64" height="64" rx="14" fill="#F05138"/>
  <path d="M44.7 41.4c.06-.2.12-.4.17-.61 2.23-8.88-3.2-19.38-12.42-24.92 4.03 5.47 5.82 12.1 4.23 17.89-.14.52-.31 1.01-.5 1.49-.2-.13-.46-.29-.8-.48 0 0-9.16-5.66-19.08-15.67-.26-.26 5.3 7.94 11.6 14.6-2.97-1.67-11.24-7.69-16.48-12.49.64 1.07 1.41 2.11 2.25 3.1 4.37 5.55 10.08 12.4 16.92 17.66-4.8 2.94-11.59 3.17-18.35.003-1.67-.78-3.24-1.73-4.7-2.8 2.86 4.58 7.27 8.52 12.63 10.83 6.4 2.75 12.76 2.56 17.5.045.02-.014.05-.03.07-.04.19-.1.39-.21.58-.32 2.27-1.18 6.77-2.38 9.18 2.31 2.23 2.42 3.48-3.67-1.06-9.34-.003-.004-.006-.006-.009-.008z" fill="#fff"/>
</svg>
