<svg xmlns="http://www.w3.org/2000/svg" viewBox="0 0 128 128">
  <title>Java Logo</title>
  <rect width="128" height="128" rx="18" fill="#f4f7fb"/>
  <path d="M40 94c0 8 15 12 24 12s24-4 24-12c0-5-7-8-14-9 6 3 9 5 9 8 0 4-9 7-19 7s-19-3-19-7c0-3 3-5 9-8-7 1-14 4-14 9z" fill="#5382a1"/>
  <path d="M48 84h32c-2 8-8 13-16 13s-14-5-16-13z" fill="#5382a1"/>
  <path d="M64 24c8 9-8 15 0 24 5 6 4 10 0 14 12-7 18-15 11-24-5-7-6-10-2-14-5 1-8 4-9 8z" fill="#e76f00"/>
  <path d="M53 54c-7 5-8 10-5 14 3 4 10 5 16 5 7 0 15-2 19-6-5 2-11 3-17 3-10 0-16-3-16-8 0-2 1-5 3-8z" fill="#e76f00"/>
</svg>
