<svg width="800px" height="800px" viewBox="0 0 256 256" xmlns="http://www.w3.org/2000/svg"><rect width="256" height="256" rx="60" fill="#087cfa"/><path d="M198.05 83.35c0-12.77-16.33-23.11-36.47-23.11-9.27 0-17.75 2.34-23.97 6.25-4.79-1.46-9.95-2.25-15.31-2.25C91.12 64.24 64 81.5 64 102.97v80.64c0 21.47 27.12 38.73 58.28 38.73 5.36 0 10.52-.79 15.31-2.25 6.22 3.91 14.7 6.25 23.97 6.25 20.14 0 36.47-10.34 36.47-23.11v-58.78c0-3.03-1.77-5.64-4.38-7.35 2.61-1.71 4.38-4.32 4.38-7.35v-26.34c0-3.03-1.77-5.64-4.38-7.35 2.61-1.71 4.38-4.32 4.38-7.35v-8.08zm-34.36 10.34c5.19 0 9.4 1.38 9.4 3.08 0 1.71-4.21 3.08-9.4 3.08s-9.4-1.38-9.4-3.08c0-1.71 4.21-3.08 9.4-3.08zm0 26.2c5.19 0 9.4 1.38 9.4 3.08 0 1.71-4.21 3.08-9.4 3.08s-9.4-1.38-9.4-3.08c0-1.71 4.21-3.08 9.4-3.08zm0 26.34c5.19 0 9.4 1.38 9.4 3.08 0 1.71-4.21 3.08-9.4 3.08s-9.4-1.38-9.4-3.08 4.21-3.08 9.4-3.08zm0 26.2c5.19 0 9.4 1.38 9.4 3.08 0 1.71-4.21 3.08-9.4 3.08s-9.4-1.38-9.4-3.08c0-1.71 4.21-3.08 9.4-3.08z" fill="#fff"/></svg>
