<svg xmlns="http://www.w3.org/2000/svg" viewBox="0 0 64 64" width="64" height="64" role="img" aria-labelledby="title">
  <title id="title">Vapor</title>
  <rect width="64" height="64" rx="14" fill="#f5f5f4"/>
  <path
    d="M57.333 37.089v4.16L28.667 64 0 41.248v-4.16l28.667 22.752 28.666-22.751zM28.667 45.7 0 22.13 28.667 0l28.666 22.129L28.667 45.7zm.949-12.36a8.516 8.516 0 0 0 8.515-8.515 8.495 8.495 0 0 0-8.078-8.469l.002-.043-12.037-1.139 3.214 10.938a8.492 8.492 0 0 0 8.384 7.228zm-.949 20.364L0 30.933v4.089l28.667 22.752 28.666-22.752v-4.089L28.667 53.704zm0-6.309L0 24.625V29l28.667 22.752L57.333 29v-4.375L28.667 47.395z"
    fill="#171717"
  />
</svg>
