<svg xmlns="http://www.w3.org/2000/svg" viewBox="0 0 50 52">
  <path fill="#FF2D20" d="M49.626 11.564a.809.809 0 0 1 .028.209v10.972a.8.8 0 0 1-.402.694l-9.209 5.302V39.25c0 .286-.152.55-.4.694L20.42 51.01a.814.814 0 0 1-.197.087.735.735 0 0 1-.114.012.7.7 0 0 1-.114-.013.814.814 0 0 1-.198-.088L.402 39.944A.8.8 0 0 1 0 39.25V6.334c0-.072.01-.143.028-.209a.777.777 0 0 1 .028-.092.78.78 0 0 1 .055-.1.757.757 0 0 1 .067-.082c.01-.013.02-.027.032-.038a.791.791 0 0 1 .107-.075L10.296.095a.8.8 0 0 1 .8 0l9.979 5.755.006.003L30.96.098a.8.8 0 0 1 .8 0l17.98 10.377a.785.785 0 0 1 .107.075c.013.011.023.025.033.038a.756.756 0 0 1 .067.081.782.782 0 0 1 .055.101c.011.03.02.06.024.092zm-1.578 10.558v-9.52L44.82 15l-4.996 2.88v9.52l8.224-4.278zm-10.821 18.69V31.3l-4.951 2.778-14.066 7.965v9.58l19.017-10.811zm-20.19.893l-9.19-5.303V6.923L10.694 4.44 1.6 9.714v32.347l17.437 10.044V41.705zM1.976 8.18l17.396 10.02 17.207-9.923L27.054 2.78 20.11 6.85a.813.813 0 0 1-.802 0L12.366 2.78 1.976 8.18zm8.715 24.007l9.18 5.301 9.18-5.3v-9.906l-9.18 5.294-9.18-5.294v9.905zm9.98-11.455l8.99-5.183-8.99-5.183-8.99 5.183 8.99 5.183z"/>
</svg>
