<svg xmlns="http://www.w3.org/2000/svg" viewBox="0 0 128 128">
  <path fill="#6181b6" d="M0 64c0 18.593 28.654 33.667 64 33.667 35.346 0 64-15.074 64-33.667 0-18.593-28.654-33.667-64-33.667C28.654 30.333 0 45.407 0 64z"/>
  <path fill="#fff" d="M45.79 57.12H34.84l-3.971 20.29h7.147l1.047-5.238h5.854c5.275 0 9.353-2.556 10.566-8.726.97-4.95-1.35-6.326-9.693-6.326zm-.9 7.217c-.43 2.224-1.97 3.06-4.5 3.06H37.7l1.117-5.705h3.168c2.236 0 3.366.594 2.905 2.645zM67.477 57.12H56.527l-3.971 20.29h7.148l1.047-5.238h5.853c5.276 0 9.354-2.556 10.567-8.726.97-4.95-1.351-6.326-9.694-6.326zm-.9 7.217c-.43 2.224-1.97 3.06-4.5 3.06h-2.689l1.117-5.705h3.168c2.236 0 3.367.594 2.904 2.645zM99.178 62.263c.621-3.168-.295-5.143-3.756-5.143H85.28l-3.97 20.29h7.148l1.554-7.953h3.262l1.95 7.952h7.756l-2.452-8.528c2.08-.78 3.389-2.47 3.65-6.618zm-8.025 3.635h-2.99l1.076-5.295h3.19c1.58 0 2.18.677 1.847 2.353-.332 1.674-1.41 2.942-3.123 2.942z"/>
</svg>
